<svg xmlns="http://www.w3.org/2000/svg" width="800" height="450" viewBox="0 0 800 450">
  <defs>
    <linearGradient id="bg" x1="0%" y1="0%" x2="100%" y2="100%">
      <stop offset="0%" style="stop-color:#1e293b;stop-opacity:1" />
      <stop offset="100%" style="stop-color:#0f172a;stop-opacity:1" />
    </linearGradient>
  </defs>
  <rect width="800" height="450" fill="url(#bg)" rx="12"/>
  <rect x="20" y="20" width="760" height="410" fill="#1e293b" rx="8" stroke="#334155" stroke-width="1"/>
  <rect x="20" y="20" width="760" height="50" fill="#0f172a" rx="8"/>
  <circle cx="40" cy="45" r="6" fill="#ef4444"/>
  <circle cx="56" cy="45" r="6" fill="#eab308"/>
  <circle cx="72" cy="45" r="6" fill="#22c55e"/>
  <text x="400" y="50" text-anchor="middle" fill="#94a3b8" font-family="system-ui" font-size="14" font-weight="500">Krynn Tools - Loan EMI Calculator</text>
  <rect x="60" y="90" width="340" height="320" fill="#0f172a" rx="8" stroke="#334155" stroke-width="1"/>
  <text x="80" y="115" fill="#94a3b8" font-family="system-ui" font-size="13" font-weight="500">Loan Details</text>
  <text x="80" y="150" fill="#94a3b8" font-family="system-ui" font-size="12">Loan Amount (₹)</text>
  <rect x="80" y="160" width="300" height="40" fill="#1e293b" rx="6" stroke="#334155" stroke-width="1"/>
  <text x="95" y="185" fill="#e2e8f0" font-family="system-ui" font-size="16">₹ 10,00,000</text>
  <text x="80" y="225" fill="#94a3b8" font-family="system-ui" font-size="12">Interest Rate (% p.a.)</text>
  <rect x="80" y="235" width="300" height="40" fill="#1e293b" rx="6" stroke="#334155" stroke-width="1"/>
  <text x="95" y="260" fill="#e2e8f0" font-family="system-ui" font-size="16">8.5%</text>
  <text x="80" y="300" fill="#94a3b8" font-family="system-ui" font-size="12">Loan Tenure (Years)</text>
  <rect x="80" y="310" width="300" height="40" fill="#1e293b" rx="6" stroke="#334155" stroke-width="1"/>
  <text x="95" y="335" fill="#e2e8f0" font-family="system-ui" font-size="16">20 years</text>
  <rect x="80" y="365" width="300" height="40" fill="#3b82f6" rx="6"/>
  <text x="230" y="390" text-anchor="middle" fill="white" font-family="system-ui" font-size="14" font-weight="500">Calculate EMI</text>
  <rect x="420" y="90" width="320" height="320" fill="#0f172a" rx="8" stroke="#22c55e" stroke-width="2"/>
  <text x="580" y="115" text-anchor="middle" fill="#22c55e" font-family="system-ui" font-size="13" font-weight="500">EMI Breakdown</text>
  <text x="580" y="165" text-anchor="middle" fill="#e2e8f0" font-family="system-ui" font-size="14">Monthly EMI</text>
  <text x="580" y="200" text-anchor="middle" fill="#22c55e" font-family="system-ui" font-size="36" font-weight="bold">₹8,678</text>
  <rect x="460" y="220" width="240" height="100" fill="#1e293b" rx="6"/>
  <text x="480" y="245" fill="#94a3b8" font-family="system-ui" font-size="11">Total Payment:</text>
  <text x="620" y="245" fill="#e2e8f0" font-family="system-ui" font-size="12" font-weight="bold">₹20,82,720</text>
  <text x="480" y="270" fill="#94a3b8" font-family="system-ui" font-size="11">Principal:</text>
  <text x="620" y="270" fill="#3b82f6" font-family="system-ui" font-size="12" font-weight="bold">₹10,00,000</text>
  <text x="480" y="295" fill="#94a3b8" font-family="system-ui" font-size="11">Total Interest:</text>
  <text x="620" y="295" fill="#ef4444" font-family="system-ui" font-size="12" font-weight="bold">₹10,82,720</text>
  <rect x="460" y="335" width="240" height="70" fill="#1e293b" rx="6"/>
  <text x="480" y="360" fill="#94a3b8" font-family="system-ui" font-size="11">Interest vs Principal</text>
  <rect x="480" y="370" width="200" height="12" fill="#3b82f6" rx="2"/>
  <rect x="480" y="370" width="96" height="12" fill="#ef4444" rx="2"/>
  <text x="490" y="388" fill="#ef4444" font-family="system-ui" font-size="9">48%</text>
  <text x="580" y="388" fill="#3b82f6" font-family="system-ui" font-size="9">52%</text>
</svg>