<svg xmlns="http://www.w3.org/2000/svg" width="800" height="450" viewBox="0 0 800 450">
  <defs>
    <linearGradient id="bg" x1="0%" y1="0%" x2="100%" y2="100%">
      <stop offset="0%" style="stop-color:#1e293b;stop-opacity:1" />
      <stop offset="100%" style="stop-color:#0f172a;stop-opacity:1" />
    </linearGradient>
  </defs>
  <rect width="800" height="450" fill="url(#bg)" rx="12"/>
  <rect x="20" y="20" width="760" height="410" fill="#1e293b" rx="8" stroke="#334155" stroke-width="1"/>
  <rect x="20" y="20" width="760" height="50" fill="#0f172a" rx="8"/>
  <circle cx="40" cy="45" r="6" fill="#ef4444"/>
  <circle cx="56" cy="45" r="6" fill="#eab308"/>
  <circle cx="72" cy="45" r="6" fill="#22c55e"/>
  <text x="400" y="50" text-anchor="middle" fill="#94a3b8" font-family="system-ui" font-size="14" font-weight="500">Krynn Tools - Background Remover</text>
  <rect x="60" y="90" width="340" height="320" fill="#0f172a" rx="8" stroke="#334155" stroke-width="1"/>
  <text x="230" y="115" text-anchor="middle" fill="#94a3b8" font-family="system-ui" font-size="13" font-weight="500">Original Image</text>
  <rect x="80" y="125" width="300" height="200" fill="#475569" rx="6"/>
  <circle cx="230" cy="180" r="40" fill="#94a3b8"/>
  <rect x="210" y="220" width="40" height="60" fill="#94a3b8" rx="4"/>
  <rect x="80" y="330" width="300" height="36" fill="#1e293b" rx="6"/>
  <text x="230" y="353" text-anchor="middle" fill="#64748b" font-family="system-ui" font-size="12">📸 photo.jpg • 3.2 MB</text>
  <rect x="420" y="90" width="320" height="320" fill="#0f172a" rx="8" stroke="#22c55e" stroke-width="2"/>
  <text x="580" y="115" text-anchor="middle" fill="#22c55e" font-family="system-ui" font-size="13" font-weight="500">Result (Transparent)</text>
  <rect x="440" y="125" width="280" height="200" fill="#1e293b" rx="6"/>
  <g>
    <rect width="280" height="200" fill="url(#checker)" opacity="0.1"/>
    <circle cx="180" cy="60" r="40" fill="#94a3b8"/>
    <rect x="160" y="100" width="40" height="60" fill="#94a3b8" rx="4"/>
  </g>
  <rect x="440" y="330" width="280" height="36" fill="#1e293b" rx="6"/>
  <text x="580" y="353" text-anchor="middle" fill="#22c55e" font-family="system-ui" font-size="12">✅ result.png • 1.8 MB • Transparent</text>
  <rect x="440" y="375" width="280" height="36" fill="#22c55e" rx="6"/>
  <text x="580" y="398" text-anchor="middle" fill="white" font-family="system-ui" font-size="13" font-weight="500">⬇ Download PNG</text>
  <defs>
    <pattern id="checker" width="20" height="20" patternUnits="userSpaceOnUse">
      <rect width="10" height="10" fill="#475569"/>
      <rect x="10" y="10" width="10" height="10" fill="#475569"/>
    </pattern>
  </defs>
</svg>