<svg xmlns="http://www.w3.org/2000/svg" width="800" height="450" viewBox="0 0 800 450">
  <defs>
    <linearGradient id="bg" x1="0%" y1="0%" x2="100%" y2="100%">
      <stop offset="0%" style="stop-color:#1e293b;stop-opacity:1" />
      <stop offset="100%" style="stop-color:#0f172a;stop-opacity:1" />
    </linearGradient>
  </defs>
  <rect width="800" height="450" fill="url(#bg)" rx="12"/>
  <rect x="20" y="20" width="760" height="410" fill="#1e293b" rx="8" stroke="#334155" stroke-width="1"/>
  <rect x="20" y="20" width="760" height="50" fill="#0f172a" rx="8"/>
  <circle cx="40" cy="45" r="6" fill="#ef4444"/>
  <circle cx="56" cy="45" r="6" fill="#eab308"/>
  <circle cx="72" cy="45" r="6" fill="#22c55e"/>
  <text x="400" y="50" text-anchor="middle" fill="#94a3b8" font-family="system-ui" font-size="14" font-weight="500">Krynn Tools - Base64 Encoder</text>
  <rect x="60" y="90" width="340" height="320" fill="#0f172a" rx="8" stroke="#334155" stroke-width="1"/>
  <text x="80" y="115" fill="#94a3b8" font-family="system-ui" font-size="13" font-weight="500">Plain Text (Input)</text>
  <rect x="80" y="125" width="300" height="200" fill="#1e293b" rx="6"/>
  <text x="95" y="155" fill="#e2e8f0" font-family="monospace" font-size="14">Hello, World!</text>
  <text x="95" y="180" fill="#e2e8f0" font-family="monospace" font-size="14">Krynn Tools is</text>
  <text x="95" y="205" fill="#e2e8f0" font-family="monospace" font-size="14">awesome! 🚀</text>
  <rect x="80" y="345" width="140" height="36" fill="#3b82f6" rx="6"/>
  <text x="150" y="368" text-anchor="middle" fill="white" font-family="system-ui" font-size="13" font-weight="500">Encode →</text>
  <rect x="420" y="90" width="320" height="320" fill="#0f172a" rx="8" stroke="#22c55e" stroke-width="2"/>
  <text x="440" y="115" fill="#22c55e" font-family="system-ui" font-size="13" font-weight="500">Base64 Output ✓</text>
  <rect x="440" y="125" width="280" height="200" fill="#1e293b" rx="6"/>
  <text x="455" y="155" fill="#22c55e" font-family="monospace" font-size="11">SGVsbG8sIFdvcmxkIQ==</text>
  <text x="455" y="175" fill="#22c55e" font-family="monospace" font-size="11">S3J5bm4gVG9vbHMgaXM=</text>
  <text x="455" y="195" fill="#22c55e" font-family="monospace" font-size="11">YXdlc29tZSDwn5iA</text>
  <text x="440" y="240" fill="#64748b" font-family="system-ui" font-size="11">Original: 29 bytes</text>
  <text x="440" y="260" fill="#22c55e" font-family="system-ui" font-size="11">Encoded: 40 bytes (+38%)</text>
  <rect x="440" y="280" width="280" height="36" fill="#3b82f6" rx="6"/>
  <text x="580" y="303" text-anchor="middle" fill="white" font-family="system-ui" font-size="13" font-weight="500">📋 Copy to Clipboard</text>
  <rect x="440" y="325" width="280" height="36" fill="#1e293b" rx="6" stroke="#334155" stroke-width="1"/>
  <text x="580" y="348" text-anchor="middle" fill="#94a3b8" font-family="system-ui" font-size="13">⬇ Download as File</text>
</svg>