<svg xmlns="http://www.w3.org/2000/svg" width="800" height="450" viewBox="0 0 800 450">
  <defs>
    <linearGradient id="bg" x1="0%" y1="0%" x2="100%" y2="100%">
      <stop offset="0%" style="stop-color:#1e293b;stop-opacity:1" />
      <stop offset="100%" style="stop-color:#0f172a;stop-opacity:1" />
    </linearGradient>
  </defs>
  <rect width="800" height="450" fill="url(#bg)" rx="12"/>
  <rect x="20" y="20" width="760" height="410" fill="#1e293b" rx="8" stroke="#334155" stroke-width="1"/>
  <rect x="20" y="20" width="760" height="50" fill="#0f172a" rx="8"/>
  <circle cx="40" cy="45" r="6" fill="#ef4444"/>
  <circle cx="56" cy="45" r="6" fill="#eab308"/>
  <circle cx="72" cy="45" r="6" fill="#22c55e"/>
  <text x="400" y="50" text-anchor="middle" fill="#94a3b8" font-family="system-ui" font-size="14" font-weight="500">Krynn Tools - Image Compressor</text>
  <rect x="60" y="90" width="340" height="320" fill="#0f172a" rx="8" stroke="#334155" stroke-width="1"/>
  <text x="80" y="115" fill="#94a3b8" font-family="system-ui" font-size="13" font-weight="500">Upload Image</text>
  <rect x="80" y="125" width="300" height="120" fill="#1e293b" rx="6" stroke="#334155" stroke-width="1" stroke-dasharray="6,3"/>
  <text x="230" y="175" text-anchor="middle" fill="#64748b" font-family="system-ui" font-size="14">🖼️ Drop image here</text>
  <text x="230" y="195" text-anchor="middle" fill="#475569" font-family="system-ui" font-size="11">JPG, PNG, WebP supported</text>
  <rect x="80" y="265" width="300" height="8" fill="#334155" rx="4"/>
  <rect x="80" y="265" width="180" height="8" fill="#3b82f6" rx="4"/>
  <text x="80" y="295" fill="#94a3b8" font-family="system-ui" font-size="12">Quality: 80%</text>
  <text x="80" y="320" fill="#94a3b8" font-family="system-ui" font-size="12">Resize: 1920 × 1080</text>
  <rect x="80" y="345" width="140" height="36" fill="#3b82f6" rx="6"/>
  <text x="150" y="368" text-anchor="middle" fill="white" font-family="system-ui" font-size="13" font-weight="500">Compress</text>
  <rect x="420" y="90" width="320" height="320" fill="#0f172a" rx="8" stroke="#334155" stroke-width="1"/>
  <text x="440" y="115" fill="#94a3b8" font-family="system-ui" font-size="13" font-weight="500">Result</text>
  <rect x="440" y="125" width="280" height="160" fill="#1e293b" rx="6"/>
  <rect x="460" y="140" width="120" height="80" fill="#334155" rx="4"/>
  <text x="520" y="185" text-anchor="middle" fill="#64748b" font-family="system-ui" font-size="10">Original</text>
  <rect x="600" y="140" width="120" height="80" fill="#334155" rx="4"/>
  <text x="660" y="185" text-anchor="middle" fill="#64748b" font-family="system-ui" font-size="10">Compressed</text>
  <rect x="440" y="300" width="280" height="60" fill="#1e293b" rx="6" stroke="#22c55e" stroke-width="1"/>
  <text x="460" y="325" fill="#94a3b8" font-family="system-ui" font-size="12">Original: 4.2 MB</text>
  <text x="460" y="345" fill="#22c55e" font-family="system-ui" font-size="14" font-weight="bold">Compressed: 890 KB (79% smaller)</text>
  <rect x="440" y="370" width="280" height="36" fill="#22c55e" rx="6"/>
  <text x="580" y="393" text-anchor="middle" fill="white" font-family="system-ui" font-size="13" font-weight="500">⬇ Download Compressed Image</text>
</svg>