<svg xmlns="http://www.w3.org/2000/svg" width="800" height="450" viewBox="0 0 800 450">
  <defs>
    <linearGradient id="bg" x1="0%" y1="0%" x2="100%" y2="100%">
      <stop offset="0%" style="stop-color:#1e293b;stop-opacity:1" />
      <stop offset="100%" style="stop-color:#0f172a;stop-opacity:1" />
    </linearGradient>
  </defs>
  <rect width="800" height="450" fill="url(#bg)" rx="12"/>
  <rect x="20" y="20" width="760" height="410" fill="#1e293b" rx="8" stroke="#334155" stroke-width="1"/>
  <rect x="20" y="20" width="760" height="50" fill="#0f172a" rx="8"/>
  <circle cx="40" cy="45" r="6" fill="#ef4444"/>
  <circle cx="56" cy="45" r="6" fill="#eab308"/>
  <circle cx="72" cy="45" r="6" fill="#22c55e"/>
  <text x="400" y="50" text-anchor="middle" fill="#94a3b8" font-family="system-ui" font-size="14" font-weight="500">Krynn Tools - JSON Formatter</text>
  <rect x="60" y="90" width="340" height="320" fill="#0f172a" rx="8" stroke="#334155" stroke-width="1"/>
  <text x="80" y="115" fill="#94a3b8" font-family="system-ui" font-size="13" font-weight="500">Input (Minified)</text>
  <rect x="80" y="125" width="300" height="200" fill="#1e293b" rx="6"/>
  <text x="95" y="150" fill="#64748b" font-family="monospace" font-size="11">{"firstName":"Jane","lastName":"Doe","email":"jane@example.com","age":30,"address":{"street":"123 Main St","city":"Springfield","state":"IL"},"active":true}</text>
  <rect x="80" y="340" width="300" height="36" fill="#3b82f6" rx="6"/>
  <text x="230" y="363" text-anchor="middle" fill="white" font-family="system-ui" font-size="13" font-weight="500">Format JSON</text>
  <rect x="420" y="90" width="320" height="320" fill="#0f172a" rx="8" stroke="#22c55e" stroke-width="2"/>
  <text x="440" y="115" fill="#22c55e" font-family="system-ui" font-size="13" font-weight="500">Output (Formatted) ✓</text>
  <rect x="440" y="125" width="280" height="260" fill="#1e293b" rx="6"/>
  <text x="455" y="148" fill="#e2e8f0" font-family="monospace" font-size="11">{</text>
  <text x="455" y="165" fill="#3b82f6" font-family="monospace" font-size="11">  "firstName": "Jane",</text>
  <text x="455" y="182" fill="#3b82f6" font-family="monospace" font-size="11">  "lastName": "Doe",</text>
  <text x="455" y="199" fill="#3b82f6" font-family="monospace" font-size="11">  "email": "jane@example.com",</text>
  <text x="455" y="216" fill="#3b82f6" font-family="monospace" font-size="11">  "age": 30,</text>
  <text x="455" y="233" fill="#3b82f6" font-family="monospace" font-size="11">  "address": {</text>
  <text x="455" y="250" fill="#94a3b8" font-family="monospace" font-size="11">    "street": "123 Main St",</text>
  <text x="455" y="267" fill="#94a3b8" font-family="monospace" font-size="11">    "city": "Springfield",</text>
  <text x="455" y="284" fill="#94a3b8" font-family="monospace" font-size="11">    "state": "IL"</text>
  <text x="455" y="301" fill="#3b82f6" font-family="monospace" font-size="11">  },</text>
  <text x="455" y="318" fill="#3b82f6" font-family="monospace" font-size="11">  "active": true</text>
  <text x="455" y="335" fill="#e2e8f0" font-family="monospace" font-size="11">}</text>
</svg>