<svg xmlns="http://www.w3.org/2000/svg" width="800" height="450" viewBox="0 0 800 450">
  <defs>
    <linearGradient id="bg" x1="0%" y1="0%" x2="100%" y2="100%">
      <stop offset="0%" style="stop-color:#1e293b;stop-opacity:1" />
      <stop offset="100%" style="stop-color:#0f172a;stop-opacity:1" />
    </linearGradient>
  </defs>
  <rect width="800" height="450" fill="url(#bg)" rx="12"/>
  <rect x="20" y="20" width="760" height="410" fill="#1e293b" rx="8" stroke="#334155" stroke-width="1"/>
  <rect x="20" y="20" width="760" height="50" fill="#0f172a" rx="8"/>
  <circle cx="40" cy="45" r="6" fill="#ef4444"/>
  <circle cx="56" cy="45" r="6" fill="#eab308"/>
  <circle cx="72" cy="45" r="6" fill="#22c55e"/>
  <text x="400" y="50" text-anchor="middle" fill="#94a3b8" font-family="system-ui" font-size="14" font-weight="500">Krynn Tools - PDF Merger</text>
  <rect x="60" y="90" width="220" height="280" fill="#0f172a" rx="8" stroke="#334155" stroke-width="1"/>
  <text x="170" y="115" text-anchor="middle" fill="#94a3b8" font-family="system-ui" font-size="13" font-weight="500">Files to Merge</text>
  <rect x="75" y="130" width="190" height="50" fill="#1e293b" rx="6" stroke="#3b82f6" stroke-width="1"/>
  <text x="95" y="150" fill="#3b82f6" font-family="system-ui" font-size="12">📄 report-ch1.pdf</text>
  <text x="95" y="168" fill="#64748b" font-family="system-ui" font-size="10">2.1 MB</text>
  <rect x="75" y="190" width="190" height="50" fill="#1e293b" rx="6" stroke="#3b82f6" stroke-width="1"/>
  <text x="95" y="210" fill="#3b82f6" font-family="system-ui" font-size="12">📄 report-ch2.pdf</text>
  <text x="95" y="228" fill="#64748b" font-family="system-ui" font-size="10">1.8 MB</text>
  <rect x="75" y="250" width="190" height="50" fill="#1e293b" rx="6" stroke="#3b82f6" stroke-width="1"/>
  <text x="95" y="270" fill="#3b82f6" font-family="system-ui" font-size="12">📄 report-ch3.pdf</text>
  <text x="95" y="288" fill="#64748b" font-family="system-ui" font-size="10">2.4 MB</text>
  <text x="170" y="330" text-anchor="middle" fill="#64748b" font-family="system-ui" font-size="11">↕ Drag to reorder</text>
  <text x="380" y="230" text-anchor="middle" fill="#3b82f6" font-family="system-ui" font-size="36">→</text>
  <rect x="440" y="130" width="220" height="200" fill="#0f172a" rx="8" stroke="#22c55e" stroke-width="2"/>
  <text x="550" y="170" text-anchor="middle" fill="#22c55e" font-family="system-ui" font-size="48">📄</text>
  <text x="550" y="210" text-anchor="middle" fill="#94a3b8" font-family="system-ui" font-size="14" font-weight="500">merged-document.pdf</text>
  <text x="550" y="235" text-anchor="middle" fill="#64748b" font-family="system-ui" font-size="12">6.3 MB • 45 pages</text>
  <rect x="480" y="260" width="140" height="36" fill="#22c55e" rx="6"/>
  <text x="550" y="283" text-anchor="middle" fill="white" font-family="system-ui" font-size="13" font-weight="500">Download</text>
</svg>