<svg xmlns="http://www.w3.org/2000/svg" width="800" height="450" viewBox="0 0 800 450">
  <defs>
    <linearGradient id="bg" x1="0%" y1="0%" x2="100%" y2="100%">
      <stop offset="0%" style="stop-color:#1e293b;stop-opacity:1" />
      <stop offset="100%" style="stop-color:#0f172a;stop-opacity:1" />
    </linearGradient>
  </defs>
  <rect width="800" height="450" fill="url(#bg)" rx="12"/>
  <rect x="20" y="20" width="760" height="410" fill="#1e293b" rx="8" stroke="#334155" stroke-width="1"/>
  <rect x="20" y="20" width="760" height="50" fill="#0f172a" rx="8"/>
  <circle cx="40" cy="45" r="6" fill="#ef4444"/>
  <circle cx="56" cy="45" r="6" fill="#eab308"/>
  <circle cx="72" cy="45" r="6" fill="#22c55e"/>
  <text x="400" y="50" text-anchor="middle" fill="#94a3b8" font-family="system-ui" font-size="14" font-weight="500">Krynn Tools - BMI Calculator</text>
  <rect x="60" y="90" width="340" height="320" fill="#0f172a" rx="8" stroke="#334155" stroke-width="1"/>
  <text x="80" y="115" fill="#94a3b8" font-family="system-ui" font-size="13" font-weight="500">Your Details</text>
  <text x="80" y="150" fill="#94a3b8" font-family="system-ui" font-size="12">Unit System</text>
  <rect x="80" y="160" width="80" height="28" fill="#3b82f6" rx="4"/>
  <text x="120" y="179" text-anchor="middle" fill="white" font-family="system-ui" font-size="11">Metric</text>
  <rect x="170" y="160" width="80" height="28" fill="#1e293b" rx="4" stroke="#334155" stroke-width="1"/>
  <text x="210" y="179" text-anchor="middle" fill="#94a3b8" font-family="system-ui" font-size="11">Imperial</text>
  <text x="80" y="215" fill="#94a3b8" font-family="system-ui" font-size="12">Height (cm)</text>
  <rect x="80" y="225" width="300" height="40" fill="#1e293b" rx="6" stroke="#334155" stroke-width="1"/>
  <text x="95" y="250" fill="#e2e8f0" font-family="system-ui" font-size="16">175</text>
  <text x="80" y="290" fill="#94a3b8" font-family="system-ui" font-size="12">Weight (kg)</text>
  <rect x="80" y="300" width="300" height="40" fill="#1e293b" rx="6" stroke="#334155" stroke-width="1"/>
  <text x="95" y="325" fill="#e2e8f0" font-family="system-ui" font-size="16">70</text>
  <rect x="80" y="355" width="300" height="40" fill="#3b82f6" rx="6"/>
  <text x="230" y="380" text-anchor="middle" fill="white" font-family="system-ui" font-size="14" font-weight="500">Calculate BMI</text>
  <rect x="420" y="90" width="320" height="320" fill="#0f172a" rx="8" stroke="#22c55e" stroke-width="2"/>
  <text x="580" y="115" text-anchor="middle" fill="#22c55e" font-family="system-ui" font-size="13" font-weight="500">Your Result</text>
  <text x="580" y="170" text-anchor="middle" fill="#22c55e" font-family="system-ui" font-size="48" font-weight="bold">22.9</text>
  <text x="580" y="200" text-anchor="middle" fill="#94a3b8" font-family="system-ui" font-size="14">Body Mass Index</text>
  <rect x="460" y="220" width="240" height="40" fill="#22c55e" rx="8"/>
  <text x="580" y="245" text-anchor="middle" fill="white" font-family="system-ui" font-size="16" font-weight="bold">Normal Weight ✓</text>
  <rect x="460" y="280" width="240" height="120" fill="#1e293b" rx="6"/>
  <text x="480" y="305" fill="#64748b" font-family="system-ui" font-size="11">BMI Categories:</text>
  <text x="480" y="325" fill="#94a3b8" font-family="system-ui" font-size="11">• Underweight: &lt; 18.5</text>
  <text x="480" y="345" fill="#22c55e" font-family="system-ui" font-size="11" font-weight="bold">• Normal: 18.5 – 24.9 ←</text>
  <text x="480" y="365" fill="#94a3b8" font-family="system-ui" font-size="11">• Overweight: 25 – 29.9</text>
  <text x="480" y="385" fill="#94a3b8" font-family="system-ui" font-size="11">• Obese: ≥ 30</text>
</svg>