<svg xmlns="http://www.w3.org/2000/svg" width="800" height="450" viewBox="0 0 800 450">
  <defs>
    <linearGradient id="bg" x1="0%" y1="0%" x2="100%" y2="100%">
      <stop offset="0%" style="stop-color:#1e293b;stop-opacity:1" />
      <stop offset="100%" style="stop-color:#0f172a;stop-opacity:1" />
    </linearGradient>
  </defs>
  <rect width="800" height="450" fill="url(#bg)" rx="12"/>
  <rect x="20" y="20" width="760" height="410" fill="#1e293b" rx="8" stroke="#334155" stroke-width="1"/>
  <rect x="20" y="20" width="760" height="50" fill="#0f172a" rx="8"/>
  <circle cx="40" cy="45" r="6" fill="#ef4444"/>
  <circle cx="56" cy="45" r="6" fill="#eab308"/>
  <circle cx="72" cy="45" r="6" fill="#22c55e"/>
  <text x="400" y="50" text-anchor="middle" fill="#94a3b8" font-family="system-ui" font-size="14" font-weight="500">Krynn Tools - PDF Compressor</text>
  <rect x="60" y="100" width="680" height="180" fill="#0f172a" rx="8" stroke="#334155" stroke-width="1" stroke-dasharray="8,4"/>
  <text x="400" y="170" text-anchor="middle" fill="#64748b" font-family="system-ui" font-size="16">📄 Drop PDF files here or click to upload</text>
  <text x="400" y="195" text-anchor="middle" fill="#475569" font-family="system-ui" font-size="12">Supports multiple files for batch compression</text>
  <rect x="250" y="230" width="300" height="36" fill="#3b82f6" rx="6"/>
  <text x="400" y="253" text-anchor="middle" fill="white" font-family="system-ui" font-size="14" font-weight="500">Compress PDF</text>
  <rect x="60" y="300" width="340" height="100" fill="#0f172a" rx="8" stroke="#334155" stroke-width="1"/>
  <text x="80" y="325" fill="#94a3b8" font-family="system-ui" font-size="13" font-weight="500">Compression Level</text>
  <rect x="80" y="340" width="300" height="8" fill="#334155" rx="4"/>
  <rect x="80" y="340" width="150" height="8" fill="#3b82f6" rx="4"/>
  <circle cx="230" cy="344" r="8" fill="white" stroke="#3b82f6" stroke-width="2"/>
  <text x="80" y="365" fill="#64748b" font-family="system-ui" font-size="11">Light</text>
  <text x="230" y="365" text-anchor="middle" fill="#3b82f6" font-family="system-ui" font-size="11" font-weight="500">Balanced</text>
  <text x="380" y="365" text-anchor="end" fill="#64748b" font-family="system-ui" font-size="11">Maximum</text>
  <rect x="420" y="300" width="320" height="100" fill="#0f172a" rx="8" stroke="#334155" stroke-width="1"/>
  <text x="440" y="325" fill="#94a3b8" font-family="system-ui" font-size="13" font-weight="500">Result Preview</text>
  <text x="440" y="355" fill="#22c55e" font-family="system-ui" font-size="24" font-weight="bold">2.4 MB</text>
  <text x="540" y="355" fill="#64748b" font-family="system-ui" font-size="14">→</text>
  <text x="580" y="355" fill="#3b82f6" font-family="system-ui" font-size="24" font-weight="bold">847 KB</text>
  <text x="440" y="380" fill="#22c55e" font-family="system-ui" font-size="12">✓ 65% size reduction</text>
</svg>