<svg xmlns="http://www.w3.org/2000/svg" width="800" height="450" viewBox="0 0 800 450">
  <defs>
    <linearGradient id="bg" x1="0%" y1="0%" x2="100%" y2="100%">
      <stop offset="0%" style="stop-color:#1e293b;stop-opacity:1" />
      <stop offset="100%" style="stop-color:#0f172a;stop-opacity:1" />
    </linearGradient>
  </defs>
  <rect width="800" height="450" fill="url(#bg)" rx="12"/>
  <rect x="20" y="20" width="760" height="410" fill="#1e293b" rx="8" stroke="#334155" stroke-width="1"/>
  <rect x="20" y="20" width="760" height="50" fill="#0f172a" rx="8"/>
  <circle cx="40" cy="45" r="6" fill="#ef4444"/>
  <circle cx="56" cy="45" r="6" fill="#eab308"/>
  <circle cx="72" cy="45" r="6" fill="#22c55e"/>
  <text x="400" y="50" text-anchor="middle" fill="#94a3b8" font-family="system-ui" font-size="14" font-weight="500">Krynn Tools - Password Generator</text>
  <rect x="60" y="90" width="680" height="80" fill="#0f172a" rx="8" stroke="#334155" stroke-width="1"/>
  <text x="80" y="115" fill="#94a3b8" font-family="system-ui" font-size="13" font-weight="500">Generated Password</text>
  <text x="80" y="150" fill="#22c55e" font-family="monospace" font-size="20" font-weight="bold">kX9$mP2#vL5nQ8wR</text>
  <rect x="620" y="125" width="100" height="30" fill="#3b82f6" rx="4"/>
  <text x="670" y="145" text-anchor="middle" fill="white" font-family="system-ui" font-size="12" font-weight="500">📋 Copy</text>
  <rect x="60" y="190" width="330" height="220" fill="#0f172a" rx="8" stroke="#334155" stroke-width="1"/>
  <text x="80" y="215" fill="#94a3b8" font-family="system-ui" font-size="13" font-weight="500">Password Length</text>
  <rect x="80" y="230" width="290" height="8" fill="#334155" rx="4"/>
  <rect x="80" y="230" width="180" height="8" fill="#3b82f6" rx="4"/>
  <circle cx="260" cy="234" r="8" fill="white" stroke="#3b82f6" stroke-width="2"/>
  <text x="290" y="237" fill="#3b82f6" font-family="system-ui" font-size="14" font-weight="bold">16</text>
  <text x="80" y="270" fill="#94a3b8" font-family="system-ui" font-size="13" font-weight="500">Character Options</text>
  <rect x="80" y="285" width="16" height="16" fill="#3b82f6" rx="3"/>
  <text x="105" y="298" fill="#e2e8f0" font-family="system-ui" font-size="12">Uppercase (A-Z)</text>
  <rect x="80" y="310" width="16" height="16" fill="#3b82f6" rx="3"/>
  <text x="105" y="323" fill="#e2e8f0" font-family="system-ui" font-size="12">Lowercase (a-z)</text>
  <rect x="80" y="335" width="16" height="16" fill="#3b82f6" rx="3"/>
  <text x="105" y="348" fill="#e2e8f0" font-family="system-ui" font-size="12">Numbers (0-9)</text>
  <rect x="80" y="360" width="16" height="16" fill="#3b82f6" rx="3"/>
  <text x="105" y="373" fill="#e2e8f0" font-family="system-ui" font-size="12">Symbols (!@#$%^&*)</text>
  <rect x="430" y="190" width="310" height="220" fill="#0f172a" rx="8" stroke="#334155" stroke-width="1"/>
  <text x="450" y="215" fill="#94a3b8" font-family="system-ui" font-size="13" font-weight="500">Password Strength</text>
  <rect x="450" y="230" width="270" height="24" fill="#1e293b" rx="4"/>
  <rect x="450" y="230" width="240" height="24" fill="#22c55e" rx="4"/>
  <text x="585" y="247" text-anchor="middle" fill="white" font-family="system-ui" font-size="12" font-weight="bold">Very Strong</text>
  <text x="450" y="280" fill="#22c55e" font-family="system-ui" font-size="12">✓ Crack time: 10,000+ years</text>
  <text x="450" y="305" fill="#64748b" font-family="system-ui" font-size="12">✓ Entropy: 95.2 bits</text>
  <text x="450" y="330" fill="#64748b" font-family="system-ui" font-size="12">✓ No dictionary words detected</text>
  <text x="450" y="355" fill="#64748b" font-family="system-ui" font-size="12">✓ Good character diversity</text>
</svg>