<svg xmlns="http://www.w3.org/2000/svg" width="800" height="450" viewBox="0 0 800 450">
  <defs>
    <linearGradient id="bg" x1="0%" y1="0%" x2="100%" y2="100%">
      <stop offset="0%" style="stop-color:#1e293b;stop-opacity:1" />
      <stop offset="100%" style="stop-color:#0f172a;stop-opacity:1" />
    </linearGradient>
  </defs>
  <rect width="800" height="450" fill="url(#bg)" rx="12"/>
  <rect x="20" y="20" width="760" height="410" fill="#1e293b" rx="8" stroke="#334155" stroke-width="1"/>
  <rect x="20" y="20" width="760" height="50" fill="#0f172a" rx="8"/>
  <circle cx="40" cy="45" r="6" fill="#ef4444"/>
  <circle cx="56" cy="45" r="6" fill="#eab308"/>
  <circle cx="72" cy="45" r="6" fill="#22c55e"/>
  <text x="400" y="50" text-anchor="middle" fill="#94a3b8" font-family="system-ui" font-size="14" font-weight="500">Krynn Tools - QR Code Generator</text>
  <rect x="60" y="90" width="380" height="320" fill="#0f172a" rx="8" stroke="#334155" stroke-width="1"/>
  <text x="80" y="115" fill="#94a3b8" font-family="system-ui" font-size="13" font-weight="500">Content Type</text>
  <rect x="80" y="125" width="80" height="28" fill="#3b82f6" rx="4"/>
  <text x="120" y="144" text-anchor="middle" fill="white" font-family="system-ui" font-size="11">URL</text>
  <rect x="170" y="125" width="80" height="28" fill="#1e293b" rx="4" stroke="#334155" stroke-width="1"/>
  <text x="210" y="144" text-anchor="middle" fill="#94a3b8" font-family="system-ui" font-size="11">Text</text>
  <rect x="260" y="125" width="80" height="28" fill="#1e293b" rx="4" stroke="#334155" stroke-width="1"/>
  <text x="300" y="144" text-anchor="middle" fill="#94a3b8" font-family="system-ui" font-size="11">WiFi</text>
  <rect x="350" y="125" width="80" height="28" fill="#1e293b" rx="4" stroke="#334155" stroke-width="1"/>
  <text x="390" y="144" text-anchor="middle" fill="#94a3b8" font-family="system-ui" font-size="11">Contact</text>
  <text x="80" y="180" fill="#94a3b8" font-family="system-ui" font-size="13" font-weight="500">URL / Content</text>
  <rect x="80" y="190" width="340" height="40" fill="#1e293b" rx="6" stroke="#334155" stroke-width="1"/>
  <text x="95" y="215" fill="#e2e8f0" font-family="system-ui" font-size="13">https://krynntools.online</text>
  <text x="80" y="260" fill="#94a3b8" font-family="system-ui" font-size="13" font-weight="500">Size</text>
  <rect x="80" y="270" width="340" height="8" fill="#334155" rx="4"/>
  <rect x="80" y="270" width="200" height="8" fill="#3b82f6" rx="4"/>
  <circle cx="280" cy="274" r="8" fill="white" stroke="#3b82f6" stroke-width="2"/>
  <text x="80" y="310" fill="#94a3b8" font-family="system-ui" font-size="13" font-weight="500">Foreground Color</text>
  <rect x="80" y="320" width="30" height="30" fill="#000000" rx="4" stroke="#334155" stroke-width="1"/>
  <rect x="120" y="320" width="30" height="30" fill="#1e40af" rx="4" stroke="#334155" stroke-width="1"/>
  <rect x="160" y="320" width="30" height="30" fill="#7c3aed" rx="4" stroke="#3b82f6" stroke-width="2"/>
  <rect x="480" y="90" width="260" height="320" fill="#0f172a" rx="8" stroke="#334155" stroke-width="1"/>
  <text x="610" y="115" text-anchor="middle" fill="#94a3b8" font-family="system-ui" font-size="13" font-weight="500">Preview</text>
  <rect x="530" y="130" width="160" height="160" fill="white" rx="8"/>
  <g transform="translate(550, 150)">
    <rect width="120" height="120" fill="white"/>
    <rect x="10" y="10" width="30" height="30" fill="black"/>
    <rect x="80" y="10" width="30" height="30" fill="black"/>
    <rect x="10" y="80" width="30" height="30" fill="black"/>
    <rect x="15" y="15" width="20" height="20" fill="white"/>
    <rect x="85" y="15" width="20" height="20" fill="white"/>
    <rect x="15" y="85" width="20" height="20" fill="white"/>
    <rect x="20" y="20" width="10" height="10" fill="black"/>
    <rect x="90" y="20" width="10" height="10" fill="black"/>
    <rect x="20" y="90" width="10" height="10" fill="black"/>
    <rect x="50" y="50" width="20" height="20" fill="black"/>
    <rect x="50" y="10" width="20" height="10" fill="black"/>
    <rect x="50" y="100" width="20" height="10" fill="black"/>
    <rect x="10" y="50" width="10" height="20" fill="black"/>
    <rect x="100" y="50" width="10" height="20" fill="black"/>
  </g>
  <rect x="530" y="310" width="160" height="36" fill="#3b82f6" rx="6"/>
  <text x="610" y="333" text-anchor="middle" fill="white" font-family="system-ui" font-size="13" font-weight="500">⬇ Download PNG</text>
  <rect x="530" y="355" width="160" height="36" fill="#1e293b" rx="6" stroke="#334155" stroke-width="1"/>
  <text x="610" y="378" text-anchor="middle" fill="#94a3b8" font-family="system-ui" font-size="13">⬇ Download SVG</text>
</svg>